<svg xmlns="http://www.w3.org/2000/svg" xml:space="preserve" fill="none" viewBox="0 0 367 367"><path fill="#030305" d="M12.768 183.95c.913-41.856 13.32-79.026 39.969-111.157 14.623-17.631 31.94-31.718 52.193-42.418 28.816-15.223 59.556-21.854 91.855-19.438 36.723 2.747 69.595 15.927 98.156 39.57 23.73 19.644 41.083 43.829 51.884 72.545 5.555 14.77 9.49 30.146 9.594 46.078.397 60.627.54 121.256.872 181.883.019 3.408-1.292 4.217-4.417 4.213-55.653-.066-111.308.22-166.958-.15-35.03-.235-67.539-9.686-96.768-29.427-32.253-21.784-54.416-51.354-67.193-87.959-6-17.19-8.51-35.092-9.187-53.74m179.66-142.192c-5.664.015-11.354-.32-16.989.097C95.244 47.807 37.05 117.273 44.942 197.511c6.96 70.748 67.852 126.099 138.85 126.158 45.32.039 90.641.007 135.962.006h5.842c.1-1.968.21-3.122.21-4.277.003-47.153.187-94.308-.084-141.46-.154-26.71-8.15-51.284-23.273-73.224-26.306-38.164-62.887-58.96-110.02-62.956"/><path fill="#FBFBFB" d="M192.916 41.764c46.646 3.99 83.227 24.786 109.533 62.95 15.123 21.94 23.119 46.513 23.273 73.224.271 47.152.087 94.307.084 141.46 0 1.155-.11 2.309-.21 4.277h-5.842c-45.321 0-90.642.033-135.962-.006-70.998-.06-131.89-55.41-138.85-126.158C37.05 117.273 95.244 47.807 175.44 41.855c5.635-.418 11.325-.082 17.477-.091M163.002 221.5c-11.578 12.932-36.508 11.728-46.538-5.658-8.667-15.022-8.811-30.921-.957-46.378 5.545-10.91 15.096-15.995 27.366-15.873 11.671.116 19.851 5.644 25.08 15.94.606 1.194 1.868 2.9 2.86 2.922 9.738.22 19.484.133 29.708.133-.516-2.217-.773-3.66-1.189-5.054-13.092-43.983-60.931-51.021-89.387-33.252-24.893 15.545-33.11 39.735-29.473 67.774 6.121 47.195 49.079 65.291 84.828 51.848 19.838-7.46 30.777-22.765 35.61-43.853-8.256 0-15.873.28-23.458-.097-5.117-.254-8.999.398-10.623 6.087-.517 1.81-2.199 3.29-3.827 5.461m83.573-14c-.011-5.995-.075-11.989-.023-17.982.196-22.503 10.777-32.974 33.23-32.941 2.281.003 4.562 0 6.939 0v-30.023c-7.636.991-15.13.941-21.9 3.129-6.821 2.203-12.924 6.63-19.54 10.19v-10.601h-29.035v125.235h30.329z"/><path fill="#060606" d="M163.242 221.23c1.388-1.9 3.07-3.38 3.587-5.19 1.624-5.689 5.506-6.341 10.623-6.087 7.585.376 15.202.097 23.459.097-4.834 21.088-15.773 36.393-35.61 43.853-35.75 13.443-78.708-4.653-84.829-51.848-3.637-28.04 4.58-52.23 29.473-67.774 28.456-17.77 76.295-10.73 89.387 33.252.416 1.395.673 2.837 1.189 5.054-10.224 0-19.97.087-29.709-.133-.99-.022-2.253-1.728-2.86-2.922-5.228-10.296-13.408-15.824-25.079-15.94-12.27-.122-21.821 4.962-27.366 15.873-7.854 15.457-7.71 31.356.957 46.378 10.03 17.386 34.96 18.59 46.778 5.388"/><path fill="#070707" d="M246.575 208v46.508h-30.329V129.273h29.035v10.6c6.616-3.56 12.719-7.986 19.54-10.19 6.77-2.187 14.264-2.137 21.9-3.128v30.023c-2.377 0-4.658.003-6.938 0-22.454-.033-33.035 10.438-33.231 32.94-.052 5.994.012 11.988.023 18.482"/></svg>